<!DOCTYPE svg PUBLIC "-//W3C//DTD SVG 1.1//EN" "http://www.w3.org/Graphics/SVG/1.1/DTD/svg11.dtd">
<svg width="100%" height="100%" viewBox="0 0 940 479" version="1.1" xmlns="http://www.w3.org/2000/svg" xmlns:xlink="http://www.w3.org/1999/xlink" xml:space="preserve" xmlns:serif="http://www.serif.com/" style="fill-rule:evenodd;clip-rule:evenodd;stroke-linejoin:round;stroke-miterlimit:2;">
    <g id="Artboard1" transform="matrix(0.489115,0,0,0.442778,0,0)">
        <rect x="0" y="0" width="1920" height="1080" style="fill:none;"/>
        <g transform="matrix(2.04451,0,0,2.25847,-1002.68,-1192.12)">
            <g transform="matrix(1.51511,8.42595e-07,9.67539e-07,1.51419,554.133,835.499)">
                <path d="M39.73,69.623C36.471,70.215 31.73,70.808 21.952,70.808C10.101,70.808 -0.27,67.845 -0.27,51.253L-0.27,20.734C-0.27,4.142 10.101,1.179 21.952,1.179C32.026,1.179 36.471,2.068 39.73,2.364C40.915,2.66 41.508,2.956 41.508,4.142L41.508,12.734C41.508,13.623 40.619,14.512 39.73,14.512L21.064,14.512C16.915,14.512 15.138,15.994 15.138,20.734L15.138,29.031L38.841,29.031C40.026,29.031 40.915,29.919 40.915,31.105L40.915,39.697C40.915,40.586 40.026,41.475 38.841,41.475L15.138,41.475L15.138,51.253C15.138,55.994 16.915,57.475 21.064,57.475L39.73,57.475C40.619,57.475 41.508,58.364 41.508,59.253L41.508,67.845C41.508,69.03 40.915,69.623 39.73,69.623Z" style="fill:rgb(49,0,8);fill-rule:nonzero;"/>
            </g>
            <g transform="matrix(1.51511,8.42595e-07,9.67539e-07,1.51419,554.133,833.255)">
                <path d="M90.989,69.92C85.656,71.401 78.249,72.29 71.434,72.29C56.619,72.29 48.323,63.697 48.323,48.883L48.323,41.772C48.323,27.55 55.73,18.364 71.434,18.364C73.212,18.364 76.175,18.661 78.841,18.957L78.841,3.253C78.841,2.068 79.73,1.179 80.619,1.179L91.878,1.179C92.767,1.179 93.656,2.068 93.656,3.253L93.656,67.253C93.656,68.734 93.36,69.327 90.989,69.92ZM78.841,31.105C76.767,30.809 73.508,30.513 71.434,30.513C64.915,30.513 63.138,35.253 63.138,41.772L63.138,48.883C63.138,55.401 64.915,60.142 71.434,60.142C74.397,60.142 77.063,59.846 78.841,59.55L78.841,31.105Z" style="fill:rgb(49,0,8);fill-rule:nonzero;"/>
            </g>
            <g transform="matrix(1.51511,8.42595e-07,9.67539e-07,1.51419,554.133,860.174)">
                <path d="M146.4,53.919L136.03,53.919C135.14,53.919 134.25,53.03 134.25,51.845L134.25,49.771C129.21,53.327 125.36,54.512 119.43,54.512C106.1,54.512 103.14,45.327 103.14,33.772L103.14,3.253C103.14,2.068 104.03,1.179 104.92,1.179L116.17,1.179C117.06,1.179 117.95,2.068 117.95,3.253L117.95,33.772C117.95,40.29 119.14,42.364 124.77,42.364C127.43,42.364 130.4,40.883 133.36,39.401L133.36,3.253C133.36,2.068 134.25,1.179 135.14,1.179L146.4,1.179C147.29,1.179 148.17,2.068 148.17,3.253L148.17,51.845C148.17,53.03 147.29,53.919 146.4,53.919Z" style="fill:rgb(49,0,8);fill-rule:nonzero;"/>
            </g>
            <g transform="matrix(1.51511,8.42595e-07,9.67539e-07,1.51419,554.133,834.601)">
                <path d="M181.36,46.808C179.29,46.808 176.32,46.808 173.95,46.511L173.95,68.734C173.95,69.919 173.06,70.808 172.17,70.808L160.32,70.808C159.14,70.808 158.54,69.919 158.54,69.03L158.54,7.4C158.54,4.141 159.73,3.548 162.69,2.956C167.14,2.363 174.54,1.771 181.06,1.771C194.99,1.771 208.62,6.511 208.62,23.993L208.62,24.585C208.62,41.771 194.99,46.808 181.36,46.808ZM193.21,23.993C193.21,17.474 189.06,14.808 181.36,14.808C180.17,14.808 175.14,15.104 173.95,15.104L173.95,33.771C174.84,33.771 180.47,34.067 181.36,34.067C189.66,34.067 193.21,30.808 193.21,24.585L193.21,23.993Z" style="fill:rgb(49,0,8);fill-rule:nonzero;"/>
            </g>
            <g transform="matrix(1.51511,8.42595e-07,9.67539e-07,1.51419,554.133,858.379)">
                <path d="M242.99,13.92L242.4,13.92C237.95,13.92 233.8,15.401 230.54,17.179L230.54,53.031C230.54,54.216 229.66,55.105 228.77,55.105L217.51,55.105C216.62,55.105 215.73,54.216 215.73,53.031L215.73,4.438C215.73,3.253 216.62,2.364 217.51,2.364L228.47,2.364C229.36,2.364 230.25,3.253 230.25,4.438L230.25,6.216C233.8,3.253 238.25,1.771 242.69,1.771C243.58,1.771 244.47,2.66 244.47,3.549L244.47,12.142C244.47,13.031 243.88,13.92 242.99,13.92Z" style="fill:rgb(49,0,8);fill-rule:nonzero;"/>
            </g>
            <g transform="matrix(1.51511,8.42595e-07,9.67539e-07,1.51419,554.133,859.276)">
                <path d="M292.77,32.883L263.43,32.883C263.43,38.216 265.8,42.957 272.92,42.957C278.84,42.957 286.84,42.365 290.4,42.068L290.69,42.068C291.88,42.068 292.47,42.661 292.47,43.55L292.47,50.661C292.47,52.142 292.17,52.735 290.69,53.031C284.77,54.512 279.73,55.105 271.73,55.105C260.77,55.105 248.92,49.475 248.92,31.698L248.92,25.179C248.92,10.365 257.51,1.179 272.03,1.179C287.14,1.179 294.54,11.55 294.54,25.179L294.54,30.513C294.54,31.994 293.95,32.883 292.77,32.883ZM280.03,23.105C280.03,16.587 277.06,13.031 272.03,13.031C266.99,13.031 263.43,16.587 263.43,23.105L263.43,23.698L280.03,23.698L280.03,23.105Z" style="fill:rgb(49,0,8);fill-rule:nonzero;"/>
            </g>
            <g transform="matrix(1.51511,8.42595e-07,9.67539e-07,1.51419,554.133,858.379)">
                <path d="M345.8,55.105L334.54,55.105C333.66,55.105 332.77,54.216 332.77,53.031L332.77,22.512C332.77,15.994 331.58,13.92 325.95,13.92C323.29,13.92 320.62,15.401 317.36,16.882L317.36,53.031C317.36,54.216 316.47,55.105 315.58,55.105L304.62,55.105C303.43,55.105 302.54,54.216 302.54,53.031L302.54,4.438C302.54,3.253 303.43,2.364 304.32,2.364L314.69,2.364C315.58,2.364 316.47,3.253 316.47,4.438L316.47,6.512C321.51,2.957 325.66,1.771 331.58,1.771C344.62,1.771 347.58,10.957 347.58,22.512L347.58,53.031C347.58,54.216 346.69,55.105 345.8,55.105Z" style="fill:rgb(49,0,8);fill-rule:nonzero;"/>
            </g>
            <g transform="matrix(1.51511,8.42595e-07,9.67539e-07,1.51419,554.133,859.276)">
                <path d="M399.43,32.883L370.1,32.883C370.1,38.216 372.47,42.957 379.58,42.957C385.51,42.957 393.51,42.365 397.06,42.068L397.36,42.068C398.54,42.068 399.14,42.661 399.14,43.55L399.14,50.661C399.14,52.142 398.84,52.735 397.36,53.031C391.43,54.512 386.4,55.105 378.4,55.105C367.43,55.105 355.58,49.475 355.58,31.698L355.58,25.179C355.58,10.365 364.17,1.179 378.69,1.179C393.8,1.179 401.21,11.55 401.21,25.179L401.21,30.513C401.21,31.994 400.62,32.883 399.43,32.883ZM386.69,23.105C386.69,16.587 383.73,13.031 378.69,13.031C373.66,13.031 370.1,16.587 370.1,23.105L370.1,23.698L386.69,23.698L386.69,23.105Z" style="fill:rgb(49,0,8);fill-rule:nonzero;"/>
            </g>
            <g transform="matrix(1.51511,8.42595e-07,9.67539e-07,1.51419,554.133,860.174)">
                <path d="M452.17,53.919L442.1,53.919C440.92,53.919 440.03,53.03 440.03,51.845L440.03,49.771C434.99,53.327 431.14,54.512 425.21,54.512C411.88,54.512 408.92,45.327 408.92,33.772L408.92,3.253C408.92,2.068 409.8,1.179 410.99,1.179L421.95,1.179C423.14,1.179 423.73,2.068 423.73,3.253L423.73,33.772C423.73,40.29 424.92,42.364 430.54,42.364C433.21,42.364 436.17,40.883 439.14,39.401L439.14,3.253C439.14,2.068 440.03,1.179 440.92,1.179L452.17,1.179C453.06,1.179 453.95,2.068 453.95,3.253L453.95,51.845C453.95,53.03 453.36,53.919 452.17,53.919Z" style="fill:rgb(49,0,8);fill-rule:nonzero;"/>
            </g>
            <g transform="matrix(1.51511,8.42595e-07,9.67539e-07,1.51419,554.133,858.379)">
                <path d="M490.99,13.92L490.4,13.92C485.95,13.92 481.8,15.401 478.54,17.179L478.54,53.031C478.54,54.216 477.66,55.105 476.77,55.105L465.51,55.105C464.62,55.105 463.73,54.216 463.73,53.031L463.73,4.438C463.73,3.253 464.32,2.364 465.51,2.364L476.47,2.364C477.36,2.364 478.25,3.253 478.25,4.438L478.25,6.216C481.51,3.253 486.25,1.771 490.69,1.771C491.58,1.771 492.47,2.66 492.47,3.549L492.47,12.142C492.47,13.031 491.88,13.92 490.99,13.92Z" style="fill:rgb(49,0,8);fill-rule:nonzero;"/>
            </g>
            <g transform="matrix(1.51511,8.42595e-07,9.67539e-07,1.51419,554.133,859.276)">
                <path d="M516.47,55.105C511.43,55.105 504.62,54.512 499.88,53.327C498.69,53.031 498.1,52.142 498.1,50.957L498.1,43.55C498.1,42.661 498.69,42.068 499.88,42.068L500.17,42.068C505.21,42.661 512.92,43.253 515.88,43.253C520.32,43.253 521.21,42.068 521.21,39.698C521.21,38.216 520.32,37.328 517.95,35.846L505.8,29.031C500.77,26.068 497.8,21.328 497.8,15.402C497.8,6.216 504.03,1.179 516.47,1.179C523.88,1.179 528.03,2.068 532.77,3.253C533.95,3.55 534.54,4.142 534.54,5.328L534.54,12.735C534.54,13.92 533.95,14.513 533.06,14.513L532.77,14.513C530.1,14.216 522.1,13.328 517.66,13.328C514.1,13.328 512.62,13.92 512.62,15.994C512.62,17.476 513.8,18.068 515.58,19.253L526.84,25.772C534.54,30.216 536.03,34.957 536.03,39.698C536.03,48.587 529.8,55.105 516.47,55.105Z" style="fill:rgb(49,0,8);fill-rule:nonzero;"/>
            </g>
            <g transform="matrix(-0.307432,1.48269,1.48359,0.307247,855.54,325.142)">
                <path d="M265.95,69.536C265.95,69.536 281.323,72.722 285.53,78.741C289.373,84.981 265.666,177.505 265.95,177.564C265.95,177.564 250.283,174.317 246.439,168.077C242.587,161.826 265.95,69.536 265.95,69.536Z" style="fill:rgb(174,19,42);fill-rule:nonzero;"/>
            </g>
            <g transform="matrix(1.51511,8.42595e-07,9.67539e-07,1.51419,554.133,354.543)">
                <path d="M382.54,159.11C377.21,152.29 223.43,159.11 218.1,164.74C213.06,170.37 213.06,186.07 213.06,186.07C213.06,186.37 350.54,174.52 355.88,180.44C361.21,185.77 361.21,201.77 361.21,201.77C361.21,200.59 160.03,210.37 154.69,213.92C149.36,219.26 149.36,235.26 149.36,235.26C149.36,237.33 377.21,226.07 382.54,222.52C387.88,217.18 387.88,164.44 382.54,159.11Z" style="fill:rgb(174,19,42);fill-rule:nonzero;"/>
            </g>
        </g>
    </g>
</svg>
